<svg xmlns="http://www.w3.org/2000/svg" xmlns:xlink="http://www.w3.org/1999/xlink" width="800" zoomAndPan="magnify" viewBox="0 0 600 374.999991" height="500" preserveAspectRatio="xMidYMid meet" version="1.0"><defs><g/><clipPath id="a6490aaa26"><path d="M 11.90625 49.59375 L 110.464844 49.59375 L 110.464844 148.152344 L 11.90625 148.152344 Z M 11.90625 49.59375 " clip-rule="nonzero"/></clipPath><clipPath id="ef80d6618f"><path d="M 61.183594 49.59375 C 33.96875 49.59375 11.90625 71.65625 11.90625 98.875 C 11.90625 126.089844 33.96875 148.152344 61.183594 148.152344 C 88.402344 148.152344 110.464844 126.089844 110.464844 98.875 C 110.464844 71.65625 88.402344 49.59375 61.183594 49.59375 Z M 61.183594 49.59375 " clip-rule="nonzero"/></clipPath><clipPath id="e469d7a414"><path d="M 0.90625 0.59375 L 99.464844 0.59375 L 99.464844 99.152344 L 0.90625 99.152344 Z M 0.90625 0.59375 " clip-rule="nonzero"/></clipPath><clipPath id="8cc26e6979"><path d="M 50.183594 0.59375 C 22.96875 0.59375 0.90625 22.65625 0.90625 49.875 C 0.90625 77.089844 22.96875 99.152344 50.183594 99.152344 C 77.402344 99.152344 99.464844 77.089844 99.464844 49.875 C 99.464844 22.65625 77.402344 0.59375 50.183594 0.59375 Z M 50.183594 0.59375 " clip-rule="nonzero"/></clipPath><clipPath id="3e94b5848c"><rect x="0" width="100" y="0" height="100"/></clipPath><clipPath id="137ce7e7d7"><path d="M 11.90625 49.59375 L 110.15625 49.59375 L 110.15625 147.84375 L 11.90625 147.84375 Z M 11.90625 49.59375 " clip-rule="nonzero"/></clipPath><clipPath id="b41f1cad2b"><path d="M 61.183594 49.59375 C 33.96875 49.59375 11.90625 71.65625 11.90625 98.871094 C 11.90625 126.085938 33.96875 148.148438 61.183594 148.148438 C 88.398438 148.148438 110.460938 126.085938 110.460938 98.871094 C 110.460938 71.65625 88.398438 49.59375 61.183594 49.59375 Z M 61.183594 49.59375 " clip-rule="nonzero"/></clipPath><clipPath id="920d0dc964"><path d="M 240.929688 57.570312 L 339.488281 57.570312 L 339.488281 156.128906 L 240.929688 156.128906 Z M 240.929688 57.570312 " clip-rule="nonzero"/></clipPath><clipPath id="fa9795b673"><path d="M 290.210938 57.570312 C 262.996094 57.570312 240.929688 79.632812 240.929688 106.847656 C 240.929688 134.066406 262.996094 156.128906 290.210938 156.128906 C 317.425781 156.128906 339.488281 134.066406 339.488281 106.847656 C 339.488281 79.632812 317.425781 57.570312 290.210938 57.570312 Z M 290.210938 57.570312 " clip-rule="nonzero"/></clipPath><clipPath id="bcabe0725f"><path d="M 0.929688 0.570312 L 99.488281 0.570312 L 99.488281 99.128906 L 0.929688 99.128906 Z M 0.929688 0.570312 " clip-rule="nonzero"/></clipPath><clipPath id="c0a1b90dbe"><path d="M 50.210938 0.570312 C 22.996094 0.570312 0.929688 22.632812 0.929688 49.847656 C 0.929688 77.066406 22.996094 99.128906 50.210938 99.128906 C 77.425781 99.128906 99.488281 77.066406 99.488281 49.847656 C 99.488281 22.632812 77.425781 0.570312 50.210938 0.570312 Z M 50.210938 0.570312 " clip-rule="nonzero"/></clipPath><clipPath id="a4c60792eb"><rect x="0" width="100" y="0" height="100"/></clipPath><clipPath id="edb12a6edf"><path d="M 240.929688 57.570312 L 339.179688 57.570312 L 339.179688 155.820312 L 240.929688 155.820312 Z M 240.929688 57.570312 " clip-rule="nonzero"/></clipPath><clipPath id="99cd26019d"><path d="M 290.207031 57.570312 C 262.992188 57.570312 240.929688 79.632812 240.929688 106.847656 C 240.929688 134.0625 262.992188 156.125 290.207031 156.125 C 317.421875 156.125 339.484375 134.0625 339.484375 106.847656 C 339.484375 79.632812 317.421875 57.570312 290.207031 57.570312 Z M 290.207031 57.570312 " clip-rule="nonzero"/></clipPath><clipPath id="f27e359ba2"><path d="M 180.8125 269.527344 L 240.8125 269.527344 L 240.8125 329.527344 L 180.8125 329.527344 Z M 180.8125 269.527344 " clip-rule="nonzero"/></clipPath><clipPath id="0215808dcc"><path d="M 240.929688 281.527344 L 240.929688 317.644531 C 240.929688 320.828125 239.664062 323.878906 237.414062 326.128906 C 235.164062 328.378906 232.113281 329.644531 228.929688 329.644531 L 192.8125 329.644531 C 189.628906 329.644531 186.578125 328.378906 184.328125 326.128906 C 182.074219 323.878906 180.8125 320.828125 180.8125 317.644531 L 180.8125 281.527344 C 180.8125 278.34375 182.074219 275.292969 184.328125 273.042969 C 186.578125 270.789062 189.628906 269.527344 192.8125 269.527344 L 228.929688 269.527344 C 232.113281 269.527344 235.164062 270.789062 237.414062 273.042969 C 239.664062 275.292969 240.929688 278.34375 240.929688 281.527344 Z M 240.929688 281.527344 " clip-rule="nonzero"/></clipPath><clipPath id="faacc3a3fc"><path d="M 130.742188 250.308594 L 229.300781 250.308594 L 229.300781 348.867188 L 130.742188 348.867188 Z M 130.742188 250.308594 " clip-rule="nonzero"/></clipPath><clipPath id="960ced14fc"><path d="M 180.023438 250.308594 C 152.804688 250.308594 130.742188 272.371094 130.742188 299.585938 C 130.742188 326.800781 152.804688 348.867188 180.023438 348.867188 C 207.238281 348.867188 229.300781 326.800781 229.300781 299.585938 C 229.300781 272.371094 207.238281 250.308594 180.023438 250.308594 Z M 180.023438 250.308594 " clip-rule="nonzero"/></clipPath><clipPath id="7942a2952b"><path d="M 0.742188 0.308594 L 99.300781 0.308594 L 99.300781 98.867188 L 0.742188 98.867188 Z M 0.742188 0.308594 " clip-rule="nonzero"/></clipPath><clipPath id="7a79082244"><path d="M 50.023438 0.308594 C 22.804688 0.308594 0.742188 22.371094 0.742188 49.585938 C 0.742188 76.800781 22.804688 98.867188 50.023438 98.867188 C 77.238281 98.867188 99.300781 76.800781 99.300781 49.585938 C 99.300781 22.371094 77.238281 0.308594 50.023438 0.308594 Z M 50.023438 0.308594 " clip-rule="nonzero"/></clipPath><clipPath id="4579f51728"><rect x="0" width="100" y="0" height="99"/></clipPath><clipPath id="4f538e75d8"><path d="M 130.742188 250.308594 L 228.992188 250.308594 L 228.992188 348.558594 L 130.742188 348.558594 Z M 130.742188 250.308594 " clip-rule="nonzero"/></clipPath><clipPath id="9d0c18bfde"><path d="M 180.019531 250.308594 C 152.804688 250.308594 130.742188 272.367188 130.742188 299.585938 C 130.742188 326.800781 152.804688 348.863281 180.019531 348.863281 C 207.234375 348.863281 229.296875 326.800781 229.296875 299.585938 C 229.296875 272.367188 207.234375 250.308594 180.019531 250.308594 Z M 180.019531 250.308594 " clip-rule="nonzero"/></clipPath><clipPath id="432a3ed23c"><path d="M 340.136719 269.527344 L 400.136719 269.527344 L 400.136719 329.527344 L 340.136719 329.527344 Z M 340.136719 269.527344 " clip-rule="nonzero"/></clipPath><clipPath id="e5f08710bc"><path d="M 400.253906 281.527344 L 400.253906 317.644531 C 400.253906 320.828125 398.988281 323.878906 396.738281 326.128906 C 394.488281 328.378906 391.4375 329.644531 388.253906 329.644531 L 352.136719 329.644531 C 348.953125 329.644531 345.902344 328.378906 343.652344 326.128906 C 341.402344 323.878906 340.136719 320.828125 340.136719 317.644531 L 340.136719 281.527344 C 340.136719 278.34375 341.402344 275.292969 343.652344 273.042969 C 345.902344 270.789062 348.953125 269.527344 352.136719 269.527344 L 388.253906 269.527344 C 391.4375 269.527344 394.488281 270.789062 396.738281 273.042969 C 398.988281 275.292969 400.253906 278.34375 400.253906 281.527344 Z M 400.253906 281.527344 " clip-rule="nonzero"/></clipPath><clipPath id="81a585645e"><path d="M 58.871094 172.652344 L 90.371094 172.652344 L 90.371094 252.152344 L 58.871094 252.152344 Z M 58.871094 172.652344 " clip-rule="nonzero"/></clipPath><clipPath id="734a800a5e"><path d="M 350.976562 250.308594 L 449.535156 250.308594 L 449.535156 348.867188 L 350.976562 348.867188 Z M 350.976562 250.308594 " clip-rule="nonzero"/></clipPath><clipPath id="0db34a0b01"><path d="M 400.257812 250.308594 C 373.039062 250.308594 350.976562 272.371094 350.976562 299.585938 C 350.976562 326.800781 373.039062 348.867188 400.257812 348.867188 C 427.472656 348.867188 449.535156 326.800781 449.535156 299.585938 C 449.535156 272.371094 427.472656 250.308594 400.257812 250.308594 Z M 400.257812 250.308594 " clip-rule="nonzero"/></clipPath><clipPath id="1cfea063df"><path d="M 0.976562 0.308594 L 99.535156 0.308594 L 99.535156 98.867188 L 0.976562 98.867188 Z M 0.976562 0.308594 " clip-rule="nonzero"/></clipPath><clipPath id="295bb90680"><path d="M 50.257812 0.308594 C 23.039062 0.308594 0.976562 22.371094 0.976562 49.585938 C 0.976562 76.800781 23.039062 98.867188 50.257812 98.867188 C 77.472656 98.867188 99.535156 76.800781 99.535156 49.585938 C 99.535156 22.371094 77.472656 0.308594 50.257812 0.308594 Z M 50.257812 0.308594 " clip-rule="nonzero"/></clipPath><clipPath id="a644bab00f"><rect x="0" width="100" y="0" height="99"/></clipPath><clipPath id="4fb40b389c"><path d="M 350.976562 250.308594 L 449.226562 250.308594 L 449.226562 348.558594 L 350.976562 348.558594 Z M 350.976562 250.308594 " clip-rule="nonzero"/></clipPath><clipPath id="e079a3b589"><path d="M 400.253906 250.308594 C 373.039062 250.308594 350.976562 272.367188 350.976562 299.585938 C 350.976562 326.800781 373.039062 348.863281 400.253906 348.863281 C 427.46875 348.863281 449.53125 326.800781 449.53125 299.585938 C 449.53125 272.367188 427.46875 250.308594 400.253906 250.308594 Z M 400.253906 250.308594 " clip-rule="nonzero"/></clipPath><clipPath id="a644818195"><path d="M 419 201 L 478 201 L 478 243 L 419 243 Z M 419 201 " clip-rule="nonzero"/></clipPath><clipPath id="c9d2134613"><path d="M 428.664062 190.695312 L 486.382812 227.117188 L 459.5625 269.613281 L 401.847656 233.1875 Z M 428.664062 190.695312 " clip-rule="nonzero"/></clipPath><clipPath id="f3dd9bb0f6"><path d="M 428.664062 190.695312 L 486.382812 227.117188 L 459.5625 269.613281 L 401.847656 233.1875 Z M 428.664062 190.695312 " clip-rule="nonzero"/></clipPath><clipPath id="36e4de6c5d"><path d="M 428.664062 190.695312 L 486.382812 227.117188 L 459.5625 269.613281 L 401.847656 233.1875 Z M 428.664062 190.695312 " clip-rule="nonzero"/></clipPath><clipPath id="43ca2f43c9"><path d="M 422 215 L 465 215 L 465 246 L 422 246 Z M 422 215 " clip-rule="nonzero"/></clipPath><clipPath id="f62574399c"><path d="M 428.664062 190.695312 L 486.382812 227.117188 L 459.5625 269.613281 L 401.847656 233.1875 Z M 428.664062 190.695312 " clip-rule="nonzero"/></clipPath><clipPath id="aebbe55133"><path d="M 428.664062 190.695312 L 486.382812 227.117188 L 459.5625 269.613281 L 401.847656 233.1875 Z M 428.664062 190.695312 " clip-rule="nonzero"/></clipPath><clipPath id="94a93dff55"><path d="M 428.664062 190.695312 L 486.382812 227.117188 L 459.5625 269.613281 L 401.847656 233.1875 Z M 428.664062 190.695312 " clip-rule="nonzero"/></clipPath><clipPath id="027214ecbc"><path d="M 425 228 L 452 228 L 452 249 L 425 249 Z M 425 228 " clip-rule="nonzero"/></clipPath><clipPath id="b1c2984030"><path d="M 428.664062 190.695312 L 486.382812 227.117188 L 459.5625 269.613281 L 401.847656 233.1875 Z M 428.664062 190.695312 " clip-rule="nonzero"/></clipPath><clipPath id="2255648c22"><path d="M 428.664062 190.695312 L 486.382812 227.117188 L 459.5625 269.613281 L 401.847656 233.1875 Z M 428.664062 190.695312 " clip-rule="nonzero"/></clipPath><clipPath id="210df1ab21"><path d="M 428.664062 190.695312 L 486.382812 227.117188 L 459.5625 269.613281 L 401.847656 233.1875 Z M 428.664062 190.695312 " clip-rule="nonzero"/></clipPath><clipPath id="76c1dc0731"><path d="M 428 243 L 438 243 L 438 253 L 428 253 Z M 428 243 " clip-rule="nonzero"/></clipPath><clipPath id="8632e41afe"><path d="M 428.664062 190.695312 L 486.382812 227.117188 L 459.5625 269.613281 L 401.847656 233.1875 Z M 428.664062 190.695312 " clip-rule="nonzero"/></clipPath><clipPath id="1008acc19a"><path d="M 428.664062 190.695312 L 486.382812 227.117188 L 459.5625 269.613281 L 401.847656 233.1875 Z M 428.664062 190.695312 " clip-rule="nonzero"/></clipPath><clipPath id="b9377e1ba3"><path d="M 428.664062 190.695312 L 486.382812 227.117188 L 459.5625 269.613281 L 401.847656 233.1875 Z M 428.664062 190.695312 " clip-rule="nonzero"/></clipPath><clipPath id="82d1cfea1f"><path d="M 11 101 L 65 101 L 65 149 L 11 149 Z M 11 101 " clip-rule="nonzero"/></clipPath><clipPath id="9dad854690"><path d="M 53.574219 159.316406 L 1.789062 114.421875 L 34.382812 76.824219 L 86.167969 121.71875 Z M 53.574219 159.316406 " clip-rule="nonzero"/></clipPath><clipPath id="f0792c2df9"><path d="M 53.574219 159.316406 L 1.789062 114.421875 L 34.382812 76.824219 L 86.167969 121.71875 Z M 53.574219 159.316406 " clip-rule="nonzero"/></clipPath><clipPath id="0bfb08beb9"><path d="M 53.574219 159.316406 L 1.789062 114.421875 L 34.382812 76.824219 L 86.167969 121.71875 Z M 53.574219 159.316406 " clip-rule="nonzero"/></clipPath><clipPath id="c6f8aa4a8a"><path d="M 25 100 L 64 100 L 64 135 L 25 135 Z M 25 100 " clip-rule="nonzero"/></clipPath><clipPath id="3c5a81897d"><path d="M 53.574219 159.316406 L 1.789062 114.421875 L 34.382812 76.824219 L 86.167969 121.71875 Z M 53.574219 159.316406 " clip-rule="nonzero"/></clipPath><clipPath id="f36fe18d86"><path d="M 53.574219 159.316406 L 1.789062 114.421875 L 34.382812 76.824219 L 86.167969 121.71875 Z M 53.574219 159.316406 " clip-rule="nonzero"/></clipPath><clipPath id="68fa7782db"><path d="M 53.574219 159.316406 L 1.789062 114.421875 L 34.382812 76.824219 L 86.167969 121.71875 Z M 53.574219 159.316406 " clip-rule="nonzero"/></clipPath><clipPath id="a7e99b2f65"><path d="M 38 99 L 63 99 L 63 122 L 38 122 Z M 38 99 " clip-rule="nonzero"/></clipPath><clipPath id="e11342fb61"><path d="M 53.574219 159.316406 L 1.789062 114.421875 L 34.382812 76.824219 L 86.167969 121.71875 Z M 53.574219 159.316406 " clip-rule="nonzero"/></clipPath><clipPath id="9539be0fb8"><path d="M 53.574219 159.316406 L 1.789062 114.421875 L 34.382812 76.824219 L 86.167969 121.71875 Z M 53.574219 159.316406 " clip-rule="nonzero"/></clipPath><clipPath id="82da54e787"><path d="M 53.574219 159.316406 L 1.789062 114.421875 L 34.382812 76.824219 L 86.167969 121.71875 Z M 53.574219 159.316406 " clip-rule="nonzero"/></clipPath><clipPath id="323071320c"><path d="M 53 98 L 62 98 L 62 107 L 53 107 Z M 53 98 " clip-rule="nonzero"/></clipPath><clipPath id="17462594b3"><path d="M 53.574219 159.316406 L 1.789062 114.421875 L 34.382812 76.824219 L 86.167969 121.71875 Z M 53.574219 159.316406 " clip-rule="nonzero"/></clipPath><clipPath id="0a3583c261"><path d="M 53.574219 159.316406 L 1.789062 114.421875 L 34.382812 76.824219 L 86.167969 121.71875 Z M 53.574219 159.316406 " clip-rule="nonzero"/></clipPath><clipPath id="31b0f5e97e"><path d="M 53.574219 159.316406 L 1.789062 114.421875 L 34.382812 76.824219 L 86.167969 121.71875 Z M 53.574219 159.316406 " clip-rule="nonzero"/></clipPath><clipPath id="b4bf9452a2"><path d="M 53.6875 60.714844 L 104.902344 60.714844 L 104.902344 111.929688 L 53.6875 111.929688 Z M 53.6875 60.714844 " clip-rule="nonzero"/></clipPath><clipPath id="cac8a6dba7"><path d="M 57.636719 60.914062 L 101.152344 60.914062 C 102.148438 60.914062 103.101562 61.308594 103.804688 62.011719 C 104.507812 62.714844 104.902344 63.667969 104.902344 64.664062 L 104.902344 108.179688 C 104.902344 109.171875 104.507812 110.128906 103.804688 110.832031 C 103.101562 111.535156 102.148438 111.929688 101.152344 111.929688 L 57.636719 111.929688 C 56.644531 111.929688 55.691406 111.535156 54.988281 110.832031 C 54.285156 110.128906 53.886719 109.171875 53.886719 108.179688 L 53.886719 64.664062 C 53.886719 63.667969 54.285156 62.714844 54.988281 62.011719 C 55.691406 61.308594 56.644531 60.914062 57.636719 60.914062 Z M 57.636719 60.914062 " clip-rule="nonzero"/></clipPath><clipPath id="6bf3829f45"><path d="M 0.6875 0.800781 L 51.902344 0.800781 L 51.902344 51.929688 L 0.6875 51.929688 Z M 0.6875 0.800781 " clip-rule="nonzero"/></clipPath><clipPath id="87c8f8e54f"><path d="M 4.636719 0.914062 L 48.152344 0.914062 C 49.148438 0.914062 50.101562 1.308594 50.804688 2.011719 C 51.507812 2.714844 51.902344 3.667969 51.902344 4.664062 L 51.902344 48.179688 C 51.902344 49.171875 51.507812 50.128906 50.804688 50.832031 C 50.101562 51.535156 49.148438 51.929688 48.152344 51.929688 L 4.636719 51.929688 C 3.644531 51.929688 2.691406 51.535156 1.988281 50.832031 C 1.285156 50.128906 0.886719 49.171875 0.886719 48.179688 L 0.886719 4.664062 C 0.886719 3.667969 1.285156 2.714844 1.988281 2.011719 C 2.691406 1.308594 3.644531 0.914062 4.636719 0.914062 Z M 4.636719 0.914062 " clip-rule="nonzero"/></clipPath><clipPath id="4575444bb3"><rect x="0" width="52" y="0" height="52"/></clipPath><clipPath id="f6d711d368"><path d="M 53.886719 60.914062 L 104.585938 60.914062 L 104.585938 111.613281 L 53.886719 111.613281 Z M 53.886719 60.914062 " clip-rule="nonzero"/></clipPath><clipPath id="efdc566dfb"><path d="M 57.636719 60.914062 L 101.144531 60.914062 C 102.140625 60.914062 103.09375 61.308594 103.796875 62.011719 C 104.5 62.714844 104.894531 63.667969 104.894531 64.664062 L 104.894531 108.171875 C 104.894531 109.167969 104.5 110.121094 103.796875 110.824219 C 103.09375 111.527344 102.140625 111.921875 101.144531 111.921875 L 57.636719 111.921875 C 56.644531 111.921875 55.691406 111.527344 54.988281 110.824219 C 54.285156 110.121094 53.886719 109.167969 53.886719 108.171875 L 53.886719 64.664062 C 53.886719 63.667969 54.285156 62.714844 54.988281 62.011719 C 55.691406 61.308594 56.644531 60.914062 57.636719 60.914062 Z M 57.636719 60.914062 " clip-rule="nonzero"/></clipPath><clipPath id="36c8d5a469"><path d="M 101.351562 60.714844 L 152.566406 60.714844 L 152.566406 111.929688 L 101.351562 111.929688 Z M 101.351562 60.714844 " clip-rule="nonzero"/></clipPath><clipPath id="46d461e87b"><path d="M 105.300781 60.914062 L 148.816406 60.914062 C 149.8125 60.914062 150.765625 61.308594 151.46875 62.011719 C 152.171875 62.714844 152.566406 63.667969 152.566406 64.664062 L 152.566406 108.179688 C 152.566406 109.171875 152.171875 110.128906 151.46875 110.832031 C 150.765625 111.535156 149.8125 111.929688 148.816406 111.929688 L 105.300781 111.929688 C 104.308594 111.929688 103.351562 111.535156 102.648438 110.832031 C 101.945312 110.128906 101.550781 109.171875 101.550781 108.179688 L 101.550781 64.664062 C 101.550781 63.667969 101.945312 62.714844 102.648438 62.011719 C 103.351562 61.308594 104.308594 60.914062 105.300781 60.914062 Z M 105.300781 60.914062 " clip-rule="nonzero"/></clipPath><clipPath id="def713c574"><path d="M 0.441406 0.800781 L 51.566406 0.800781 L 51.566406 51.929688 L 0.441406 51.929688 Z M 0.441406 0.800781 " clip-rule="nonzero"/></clipPath><clipPath id="fe8cb668dd"><path d="M 4.300781 0.914062 L 47.816406 0.914062 C 48.8125 0.914062 49.765625 1.308594 50.46875 2.011719 C 51.171875 2.714844 51.566406 3.667969 51.566406 4.664062 L 51.566406 48.179688 C 51.566406 49.171875 51.171875 50.128906 50.46875 50.832031 C 49.765625 51.535156 48.8125 51.929688 47.816406 51.929688 L 4.300781 51.929688 C 3.308594 51.929688 2.351562 51.535156 1.648438 50.832031 C 0.945312 50.128906 0.550781 49.171875 0.550781 48.179688 L 0.550781 4.664062 C 0.550781 3.667969 0.945312 2.714844 1.648438 2.011719 C 2.351562 1.308594 3.308594 0.914062 4.300781 0.914062 Z M 4.300781 0.914062 " clip-rule="nonzero"/></clipPath><clipPath id="76c2941cac"><rect x="0" width="52" y="0" height="52"/></clipPath><clipPath id="ea85789155"><path d="M 101.550781 60.914062 L 152.25 60.914062 L 152.25 111.613281 L 101.550781 111.613281 Z M 101.550781 60.914062 " clip-rule="nonzero"/></clipPath><clipPath id="5637d70442"><path d="M 105.300781 60.914062 L 148.808594 60.914062 C 149.804688 60.914062 150.757812 61.308594 151.460938 62.011719 C 152.164062 62.714844 152.558594 63.667969 152.558594 64.664062 L 152.558594 108.171875 C 152.558594 109.167969 152.164062 110.121094 151.460938 110.824219 C 150.757812 111.527344 149.804688 111.921875 148.808594 111.921875 L 105.300781 111.921875 C 104.308594 111.921875 103.351562 111.527344 102.648438 110.824219 C 101.945312 110.121094 101.550781 109.167969 101.550781 108.171875 L 101.550781 64.664062 C 101.550781 63.667969 101.945312 62.714844 102.648438 62.011719 C 103.351562 61.308594 104.308594 60.914062 105.300781 60.914062 Z M 105.300781 60.914062 " clip-rule="nonzero"/></clipPath><clipPath id="b688b9b601"><path d="M 148.308594 60.714844 L 199.523438 60.714844 L 199.523438 111.929688 L 148.308594 111.929688 Z M 148.308594 60.714844 " clip-rule="nonzero"/></clipPath><clipPath id="5bf7849594"><path d="M 152.261719 60.914062 L 195.773438 60.914062 C 196.769531 60.914062 197.722656 61.308594 198.425781 62.011719 C 199.128906 62.714844 199.523438 63.667969 199.523438 64.664062 L 199.523438 108.179688 C 199.523438 109.171875 199.128906 110.128906 198.425781 110.832031 C 197.722656 111.535156 196.769531 111.929688 195.773438 111.929688 L 152.261719 111.929688 C 151.265625 111.929688 150.3125 111.535156 149.609375 110.832031 C 148.90625 110.128906 148.511719 109.171875 148.511719 108.179688 L 148.511719 64.664062 C 148.511719 63.667969 148.90625 62.714844 149.609375 62.011719 C 150.3125 61.308594 151.265625 60.914062 152.261719 60.914062 Z M 152.261719 60.914062 " clip-rule="nonzero"/></clipPath><clipPath id="fab118662b"><path d="M 0.480469 0.800781 L 51.523438 0.800781 L 51.523438 51.929688 L 0.480469 51.929688 Z M 0.480469 0.800781 " clip-rule="nonzero"/></clipPath><clipPath id="2aa4da6721"><path d="M 4.261719 0.914062 L 47.773438 0.914062 C 48.769531 0.914062 49.722656 1.308594 50.425781 2.011719 C 51.128906 2.714844 51.523438 3.667969 51.523438 4.664062 L 51.523438 48.179688 C 51.523438 49.171875 51.128906 50.128906 50.425781 50.832031 C 49.722656 51.535156 48.769531 51.929688 47.773438 51.929688 L 4.261719 51.929688 C 3.265625 51.929688 2.3125 51.535156 1.609375 50.832031 C 0.90625 50.128906 0.511719 49.171875 0.511719 48.179688 L 0.511719 4.664062 C 0.511719 3.667969 0.90625 2.714844 1.609375 2.011719 C 2.3125 1.308594 3.265625 0.914062 4.261719 0.914062 Z M 4.261719 0.914062 " clip-rule="nonzero"/></clipPath><clipPath id="f004f0f68d"><rect x="0" width="52" y="0" height="52"/></clipPath><clipPath id="9a360ef8c4"><path d="M 148.511719 60.914062 L 199.207031 60.914062 L 199.207031 111.613281 L 148.511719 111.613281 Z M 148.511719 60.914062 " clip-rule="nonzero"/></clipPath><clipPath id="11f80675cc"><path d="M 152.257812 60.914062 L 195.765625 60.914062 C 196.761719 60.914062 197.714844 61.308594 198.417969 62.011719 C 199.121094 62.714844 199.515625 63.667969 199.515625 64.664062 L 199.515625 108.171875 C 199.515625 109.167969 199.121094 110.121094 198.417969 110.824219 C 197.714844 111.527344 196.761719 111.921875 195.765625 111.921875 L 152.257812 111.921875 C 151.265625 111.921875 150.3125 111.527344 149.609375 110.824219 C 148.90625 110.121094 148.511719 109.167969 148.511719 108.171875 L 148.511719 64.664062 C 148.511719 63.667969 148.90625 62.714844 149.609375 62.011719 C 150.3125 61.308594 151.265625 60.914062 152.257812 60.914062 Z M 152.257812 60.914062 " clip-rule="nonzero"/></clipPath><clipPath id="1c8a6373ca"><path d="M 101.351562 14 L 152.566406 14 L 152.566406 65.046875 L 101.351562 65.046875 Z M 101.351562 14 " clip-rule="nonzero"/></clipPath><clipPath id="aac78376d0"><path d="M 105.300781 14.03125 L 148.816406 14.03125 C 149.8125 14.03125 150.765625 14.425781 151.46875 15.128906 C 152.171875 15.832031 152.566406 16.785156 152.566406 17.78125 L 152.566406 61.296875 C 152.566406 62.289062 152.171875 63.246094 151.46875 63.949219 C 150.765625 64.652344 149.8125 65.046875 148.816406 65.046875 L 105.300781 65.046875 C 104.308594 65.046875 103.351562 64.652344 102.648438 63.949219 C 101.945312 63.246094 101.550781 62.289062 101.550781 61.296875 L 101.550781 17.78125 C 101.550781 16.785156 101.945312 15.832031 102.648438 15.128906 C 103.351562 14.425781 104.308594 14.03125 105.300781 14.03125 Z M 105.300781 14.03125 " clip-rule="nonzero"/></clipPath><clipPath id="fb7b6a29e1"><path d="M 0.441406 0 L 51.566406 0 L 51.566406 51.046875 L 0.441406 51.046875 Z M 0.441406 0 " clip-rule="nonzero"/></clipPath><clipPath id="91b4263ca1"><path d="M 4.300781 0.03125 L 47.816406 0.03125 C 48.8125 0.03125 49.765625 0.425781 50.46875 1.128906 C 51.171875 1.832031 51.566406 2.785156 51.566406 3.78125 L 51.566406 47.296875 C 51.566406 48.289062 51.171875 49.246094 50.46875 49.949219 C 49.765625 50.652344 48.8125 51.046875 47.816406 51.046875 L 4.300781 51.046875 C 3.308594 51.046875 2.351562 50.652344 1.648438 49.949219 C 0.945312 49.246094 0.550781 48.289062 0.550781 47.296875 L 0.550781 3.78125 C 0.550781 2.785156 0.945312 1.832031 1.648438 1.128906 C 2.351562 0.425781 3.308594 0.03125 4.300781 0.03125 Z M 4.300781 0.03125 " clip-rule="nonzero"/></clipPath><clipPath id="76892aad77"><rect x="0" width="52" y="0" height="52"/></clipPath><clipPath id="b12a76082c"><path d="M 101.550781 14.03125 L 152.25 14.03125 L 152.25 64.730469 L 101.550781 64.730469 Z M 101.550781 14.03125 " clip-rule="nonzero"/></clipPath><clipPath id="672e3fd0ab"><path d="M 105.300781 14.03125 L 148.808594 14.03125 C 149.804688 14.03125 150.757812 14.425781 151.460938 15.128906 C 152.164062 15.832031 152.558594 16.785156 152.558594 17.78125 L 152.558594 61.289062 C 152.558594 62.285156 152.164062 63.238281 151.460938 63.941406 C 150.757812 64.644531 149.804688 65.039062 148.808594 65.039062 L 105.300781 65.039062 C 104.308594 65.039062 103.351562 64.644531 102.648438 63.941406 C 101.945312 63.238281 101.550781 62.285156 101.550781 61.289062 L 101.550781 17.78125 C 101.550781 16.785156 101.945312 15.832031 102.648438 15.128906 C 103.351562 14.425781 104.308594 14.03125 105.300781 14.03125 Z M 105.300781 14.03125 " clip-rule="nonzero"/></clipPath><clipPath id="adc6e1ef68"><rect x="0" width="25" y="0" height="61"/></clipPath><clipPath id="d7ec00183d"><rect x="0" width="213" y="0" height="160"/></clipPath></defs><g clip-path="url(#a6490aaa26)"><g clip-path="url(#ef80d6618f)"><g transform="matrix(1, 0, 0, 1, 11, 49)"><g clip-path="url(#3e94b5848c)"><g clip-path="url(#e469d7a414)"><g clip-path="url(#8cc26e6979)"><path fill="#ffffff" d="M 0.90625 0.59375 L 99.464844 0.59375 L 99.464844 99.152344 L 0.90625 99.152344 Z M 0.90625 0.59375 " fill-opacity="1" fill-rule="nonzero"/></g></g></g></g></g></g><g clip-path="url(#137ce7e7d7)"><g clip-path="url(#b41f1cad2b)"><path stroke-linecap="butt" transform="matrix(0.75, 0, 0, 0.75, 11.905299, 49.594542)" fill="none" stroke-linejoin="miter" d="M 65.704398 -0.00105646 C 29.417937 -0.00105646 0.00126824 29.415612 0.00126824 65.702073 C 0.00126824 101.988534 29.417937 131.405202 65.704398 131.405202 C 101.990858 131.405202 131.407527 101.988534 131.407527 65.702073 C 131.407527 29.415612 101.990858 -0.00105646 65.704398 -0.00105646 Z M 65.704398 -0.00105646 " stroke="#000000" stroke-width="20" stroke-opacity="1" stroke-miterlimit="4"/></g></g><g clip-path="url(#920d0dc964)"><g clip-path="url(#fa9795b673)"><g transform="matrix(1, 0, 0, 1, 240, 57)"><g clip-path="url(#a4c60792eb)"><g clip-path="url(#bcabe0725f)"><g clip-path="url(#c0a1b90dbe)"><path fill="#ffffff" d="M 0.929688 0.570312 L 99.488281 0.570312 L 99.488281 99.128906 L 0.929688 99.128906 Z M 0.929688 0.570312 " fill-opacity="1" fill-rule="nonzero"/></g></g></g></g></g></g><g clip-path="url(#edb12a6edf)"><g clip-path="url(#99cd26019d)"><path stroke-linecap="butt" transform="matrix(0.75, 0, 0, 0.75, 240.931237, 57.569312)" fill="none" stroke-linejoin="miter" d="M 65.701063 0.00133371 C 29.414603 0.00133371 -0.00206597 29.418002 -0.00206597 65.704463 C -0.00206597 101.990924 29.414603 131.407592 65.701063 131.407592 C 101.987524 131.407592 131.404193 101.990924 131.404193 65.704463 C 131.404193 29.418002 101.987524 0.00133371 65.701063 0.00133371 Z M 65.701063 0.00133371 " stroke="#000000" stroke-width="20" stroke-opacity="1" stroke-miterlimit="4"/></g></g><path stroke-linecap="butt" transform="matrix(0.372239, -0.651105, 0.651105, 0.372239, 199.600496, 254.004533)" fill="none" stroke-linejoin="miter" d="M -0.00024734 7.501045 L 164.58029 7.498646 " stroke="#000000" stroke-width="15" stroke-opacity="1" stroke-miterlimit="4"/><g clip-path="url(#f27e359ba2)"><g clip-path="url(#0215808dcc)"><path stroke-linecap="butt" transform="matrix(0.75, 0, 0, 0.75, 180.81193, 269.526575)" fill="none" stroke-linejoin="miter" d="M 80.157016 16.001026 L 80.157016 64.157279 C 80.157016 68.402071 78.469516 72.46978 75.469515 75.46978 C 72.469515 78.46978 68.401807 80.15728 64.157015 80.15728 L 16.000761 80.15728 C 11.755969 80.15728 7.688261 78.46978 4.688261 75.46978 C 1.683052 72.46978 0.000760364 68.402071 0.000760364 64.157279 L 0.000760364 16.001026 C 0.000760364 11.756234 1.683052 7.688525 4.688261 4.688525 C 7.688261 1.683317 11.755969 0.00102487 16.000761 0.00102487 L 64.157015 0.00102487 C 68.401807 0.00102487 72.469515 1.683317 75.469515 4.688525 C 78.469516 7.688525 80.157016 11.756234 80.157016 16.001026 Z M 80.157016 16.001026 " stroke="#000000" stroke-width="20" stroke-opacity="1" stroke-miterlimit="4"/></g></g><path stroke-linecap="butt" transform="matrix(0.75, 0, 0, 0.75, 229.301419, 293.961221)" fill="none" stroke-linejoin="miter" d="M -0.000849723 7.499623 L 162.233536 7.499623 " stroke="#000000" stroke-width="15" stroke-opacity="1" stroke-miterlimit="4"/><path stroke-linecap="butt" transform="matrix(0.371874, 0.651314, -0.651314, 0.371874, 319.533531, 146.862955)" fill="none" stroke-linejoin="miter" d="M 0.00022314 7.500499 L 164.487107 7.501246 " stroke="#000000" stroke-width="15" stroke-opacity="1" stroke-miterlimit="4"/><path stroke-linecap="butt" transform="matrix(-0.382106, -0.645364, 0.645364, -0.382106, 150.064788, 260.037492)" fill="none" stroke-linejoin="miter" d="M -0.00103931 7.501291 L 179.573551 7.500241 " stroke="#000000" stroke-width="15" stroke-opacity="1" stroke-miterlimit="4"/><g clip-path="url(#faacc3a3fc)"><g clip-path="url(#960ced14fc)"><g transform="matrix(1, 0, 0, 1, 130, 250)"><g clip-path="url(#4579f51728)"><g clip-path="url(#7942a2952b)"><g clip-path="url(#7a79082244)"><path fill="#ffffff" d="M 0.742188 0.308594 L 99.300781 0.308594 L 99.300781 98.867188 L 0.742188 98.867188 Z M 0.742188 0.308594 " fill-opacity="1" fill-rule="nonzero"/></g></g></g></g></g></g><g clip-path="url(#4f538e75d8)"><g clip-path="url(#9d0c18bfde)"><path stroke-linecap="butt" transform="matrix(0.75, 0, 0, 0.75, 130.742605, 250.306829)" fill="none" stroke-linejoin="miter" d="M 65.702573 0.00235278 C 29.416112 0.00235278 -0.000556686 29.413813 -0.000556686 65.705482 C -0.000556686 101.991943 29.416112 131.408611 65.702573 131.408611 C 101.989033 131.408611 131.405702 101.991943 131.405702 65.705482 C 131.405702 29.413813 101.989033 0.00235278 65.702573 0.00235278 Z M 65.702573 0.00235278 " stroke="#000000" stroke-width="20" stroke-opacity="1" stroke-miterlimit="4"/></g></g><g clip-path="url(#432a3ed23c)"><g clip-path="url(#e5f08710bc)"><path stroke-linecap="butt" transform="matrix(0.75, 0, 0, 0.75, 340.13685, 269.526575)" fill="none" stroke-linejoin="miter" d="M 80.15608 16.001026 L 80.15608 64.157279 C 80.15608 68.402071 78.46858 72.46978 75.468579 75.46978 C 72.468579 78.46978 68.400871 80.15728 64.156079 80.15728 L 15.999825 80.15728 C 11.755033 80.15728 7.687325 78.46978 4.687325 75.46978 C 1.687324 72.46978 -0.000175619 68.402071 -0.000175619 64.157279 L -0.000175619 16.001026 C -0.000175619 11.756234 1.687324 7.688525 4.687325 4.688525 C 7.687325 1.683317 11.755033 0.00102487 15.999825 0.00102487 L 64.156079 0.00102487 C 68.400871 0.00102487 72.468579 1.683317 75.468579 4.688525 C 78.46858 7.688525 80.15608 11.756234 80.15608 16.001026 Z M 80.15608 16.001026 " stroke="#000000" stroke-width="20" stroke-opacity="1" stroke-miterlimit="4"/></g></g><g clip-path="url(#81a585645e)"><path fill="#000000" d="M 59.90625 252.140625 C 59.417969 252.226562 59.054688 251.65625 59.210938 251.171875 C 59.34375 250.203125 59.660156 249.277344 59.964844 248.355469 C 60.359375 246.941406 60.6875 245.507812 61.097656 244.09375 C 61.695312 241.160156 62.164062 238.207031 62.882812 235.292969 C 63.359375 232.832031 64.046875 230.417969 64.550781 227.960938 C 65.0625 225.136719 65.621094 222.324219 66.257812 219.523438 C 66.808594 217.125 67.183594 214.683594 67.765625 212.289062 C 68.328125 210.050781 68.714844 207.777344 69.078125 205.511719 C 69.261719 204.53125 69.375 203.542969 69.5 202.554688 C 69.1875 202.492188 68.878906 202.410156 68.566406 202.375 C 67.996094 202.304688 67.429688 202.214844 66.863281 202.121094 C 65.105469 201.90625 63.351562 201.660156 61.601562 201.375 C 61.058594 201.308594 60.519531 201.21875 59.976562 201.160156 C 59.628906 201.175781 59.242188 201.082031 59.105469 200.835938 C 59.101562 200.835938 59.101562 200.832031 59.101562 200.832031 C 58.761719 200.464844 58.972656 199.917969 59.066406 199.492188 C 59.636719 197.058594 60.28125 194.640625 60.8125 192.199219 C 61.097656 190.886719 61.242188 189.570312 61.597656 188.28125 C 62.742188 183.9375 63.964844 179.613281 65.042969 175.253906 C 65.257812 174.5625 65.46875 173.867188 65.71875 173.1875 C 65.746094 173.144531 65.773438 173.101562 65.804688 173.066406 C 66.019531 172.429688 67.351562 172.710938 67.902344 172.675781 C 68.984375 172.726562 70.066406 172.707031 71.148438 172.710938 C 73.472656 172.769531 75.792969 172.644531 78.113281 172.75 C 80.535156 172.8125 82.949219 173.042969 85.367188 173.144531 C 85.820312 173.144531 86.265625 173.207031 86.714844 173.277344 C 87.296875 173.347656 87.898438 173.316406 88.476562 173.429688 C 88.636719 173.480469 88.75 173.589844 88.808594 173.722656 C 89.070312 173.839844 89.25 174.140625 89.066406 174.445312 C 88.902344 174.726562 88.777344 175.027344 88.632812 175.316406 C 87.9375 176.753906 87.289062 178.207031 86.648438 179.667969 C 85.226562 182.660156 83.628906 185.566406 82.214844 188.558594 C 81.574219 190.050781 80.753906 191.457031 80.066406 192.925781 C 80.292969 192.96875 80.507812 193.011719 80.679688 193.007812 C 81.769531 193.113281 82.730469 193.1875 83.78125 193.398438 C 85.570312 193.691406 87.398438 193.730469 89.175781 194.09375 C 89.398438 194.140625 89.621094 194.160156 89.839844 194.210938 C 90.042969 194.230469 90.164062 194.324219 90.222656 194.460938 C 90.320312 194.621094 90.320312 194.828125 90.246094 194.996094 C 90.109375 195.757812 89.476562 196.855469 89.359375 197.261719 C 88.875 198.535156 88.304688 199.769531 87.6875 200.984375 C 86.628906 203.667969 85.46875 206.3125 84.246094 208.929688 C 82.472656 212.890625 80.371094 216.6875 78.269531 220.484375 C 76.75 223.125 75.453125 225.886719 74.039062 228.585938 C 72.847656 230.722656 71.574219 232.820312 70.257812 234.882812 C 67.65625 239.261719 65.597656 243.960938 62.675781 248.148438 C 61.847656 249.449219 61.398438 251.082031 60.199219 252.09375 C 60.101562 252.140625 60.003906 252.152344 59.90625 252.140625 Z M 59.90625 252.140625 " fill-opacity="1" fill-rule="nonzero"/></g><path stroke-linecap="round" transform="matrix(0.361553, -0.657099, 0.657099, 0.361553, 406.269029, 287.659551)" fill="none" stroke-linejoin="miter" d="M 7.502607 7.500445 L 68.256548 7.499005 " stroke="#000000" stroke-width="15" stroke-opacity="1" stroke-miterlimit="4"/><g clip-path="url(#734a800a5e)"><g clip-path="url(#0db34a0b01)"><g transform="matrix(1, 0, 0, 1, 350, 250)"><g clip-path="url(#a644bab00f)"><g clip-path="url(#1cfea063df)"><g clip-path="url(#295bb90680)"><path fill="#ffffff" d="M 0.976562 0.308594 L 99.535156 0.308594 L 99.535156 98.867188 L 0.976562 98.867188 Z M 0.976562 0.308594 " fill-opacity="1" fill-rule="nonzero"/></g></g></g></g></g></g><g clip-path="url(#4fb40b389c)"><g clip-path="url(#e079a3b589)"><path stroke-linecap="butt" transform="matrix(0.75, 0, 0, 0.75, 350.976752, 250.306829)" fill="none" stroke-linejoin="miter" d="M 65.702876 0.00235278 C 29.416416 0.00235278 -0.00025287 29.413813 -0.00025287 65.705482 C -0.00025287 101.991943 29.416416 131.408611 65.702876 131.408611 C 101.989337 131.408611 131.406006 101.991943 131.406006 65.705482 C 131.406006 29.413813 101.989337 0.00235278 65.702876 0.00235278 Z M 65.702876 0.00235278 " stroke="#000000" stroke-width="20" stroke-opacity="1" stroke-miterlimit="4"/></g></g><g clip-path="url(#a644818195)"><g clip-path="url(#c9d2134613)"><g clip-path="url(#f3dd9bb0f6)"><g clip-path="url(#36e4de6c5d)"><path fill="#00000d" d="M 477.835938 237.898438 C 476.484375 231.777344 473.980469 226.113281 470.386719 221.070312 C 466.921875 216.199219 462.59375 212.105469 457.523438 208.90625 C 452.457031 205.707031 446.898438 203.5625 441.011719 202.53125 C 434.910156 201.460938 428.722656 201.632812 422.617188 203.050781 C 420.574219 203.523438 419.28125 205.566406 419.734375 207.613281 C 420.1875 209.664062 422.207031 210.9375 424.25 210.464844 C 445.105469 205.632812 465.824219 218.707031 470.4375 239.613281 C 470.664062 240.636719 471.28125 241.46875 472.097656 241.984375 C 472.917969 242.5 473.933594 242.699219 474.953125 242.464844 C 476.996094 241.988281 478.289062 239.945312 477.835938 237.898438 Z M 477.835938 237.898438 " fill-opacity="1" fill-rule="nonzero"/></g></g></g></g><g clip-path="url(#43ca2f43c9)"><g clip-path="url(#f62574399c)"><g clip-path="url(#aebbe55133)"><g clip-path="url(#94a93dff55)"><path fill="#00000d" d="M 450.101562 220.652344 C 442.707031 215.988281 433.914062 214.511719 425.335938 216.496094 C 423.40625 216.945312 422.1875 218.878906 422.613281 220.8125 C 423.039062 222.75 424.953125 223.957031 426.882812 223.507812 C 440.714844 220.304688 454.457031 228.976562 457.515625 242.839844 C 457.726562 243.808594 458.3125 244.59375 459.085938 245.082031 C 459.859375 245.566406 460.820312 245.757812 461.785156 245.535156 C 463.714844 245.085938 464.933594 243.152344 464.507812 241.21875 C 462.613281 232.625 457.496094 225.320312 450.101562 220.652344 Z M 450.101562 220.652344 " fill-opacity="1" fill-rule="nonzero"/></g></g></g></g><g clip-path="url(#027214ecbc)"><g clip-path="url(#b1c2984030)"><g clip-path="url(#2255648c22)"><g clip-path="url(#210df1ab21)"><path fill="#00000d" d="M 443.148438 231.667969 C 438.652344 228.832031 433.308594 227.933594 428.09375 229.140625 C 426.171875 229.585938 424.960938 231.507812 425.386719 233.4375 C 425.808594 235.363281 427.710938 236.5625 429.632812 236.117188 C 436.550781 234.515625 443.421875 238.851562 444.953125 245.785156 C 445.164062 246.746094 445.746094 247.527344 446.515625 248.015625 C 447.285156 248.5 448.238281 248.6875 449.199219 248.464844 C 451.121094 248.019531 452.335938 246.097656 451.910156 244.171875 C 450.757812 238.945312 447.644531 234.507812 443.148438 231.667969 Z M 443.148438 231.667969 " fill-opacity="1" fill-rule="nonzero"/></g></g></g></g><g clip-path="url(#76c1dc0731)"><g clip-path="url(#8632e41afe)"><g clip-path="url(#1008acc19a)"><g clip-path="url(#b9377e1ba3)"><path fill="#000000" d="M 436.714844 249.964844 C 436.558594 250.210938 436.382812 250.4375 436.183594 250.648438 C 435.984375 250.859375 435.765625 251.050781 435.53125 251.21875 C 435.296875 251.386719 435.046875 251.53125 434.78125 251.648438 C 434.519531 251.765625 434.246094 251.859375 433.964844 251.925781 C 433.683594 251.988281 433.398438 252.027344 433.109375 252.035156 C 432.824219 252.042969 432.539062 252.023438 432.253906 251.976562 C 431.96875 251.929688 431.695312 251.855469 431.425781 251.753906 C 431.15625 251.648438 430.902344 251.523438 430.660156 251.367188 C 430.417969 251.214844 430.191406 251.039062 429.984375 250.84375 C 429.777344 250.644531 429.589844 250.425781 429.425781 250.191406 C 429.257812 249.957031 429.117188 249.707031 429.003906 249.441406 C 428.886719 249.179688 428.796875 248.90625 428.734375 248.625 C 428.671875 248.34375 428.640625 248.058594 428.632812 247.769531 C 428.628906 247.480469 428.648438 247.191406 428.699219 246.90625 C 428.75 246.621094 428.828125 246.34375 428.929688 246.074219 C 429.035156 245.800781 429.164062 245.542969 429.320312 245.300781 C 429.476562 245.054688 429.652344 244.824219 429.851562 244.613281 C 430.050781 244.402344 430.269531 244.214844 430.503906 244.046875 C 430.738281 243.878906 430.988281 243.734375 431.253906 243.617188 C 431.515625 243.496094 431.789062 243.40625 432.070312 243.339844 C 432.351562 243.273438 432.636719 243.238281 432.925781 243.230469 C 433.210938 243.21875 433.496094 243.238281 433.78125 243.289062 C 434.066406 243.335938 434.339844 243.410156 434.609375 243.511719 C 434.878906 243.613281 435.132812 243.742188 435.375 243.894531 C 435.617188 244.050781 435.84375 244.222656 436.050781 244.421875 C 436.257812 244.621094 436.445312 244.835938 436.609375 245.074219 C 436.777344 245.308594 436.917969 245.558594 437.03125 245.820312 C 437.148438 246.085938 437.238281 246.359375 437.300781 246.640625 C 437.363281 246.921875 437.394531 247.207031 437.402344 247.496094 C 437.40625 247.785156 437.386719 248.074219 437.335938 248.359375 C 437.285156 248.644531 437.207031 248.921875 437.105469 249.191406 C 437 249.460938 436.871094 249.71875 436.714844 249.964844 Z M 436.714844 249.964844 " fill-opacity="1" fill-rule="nonzero"/></g></g></g></g><g fill="#000000" fill-opacity="1"><g transform="translate(278.445018, 123.348712)"><g><path d="M 9.78125 -24.703125 L 3.5625 -24.703125 L 6.890625 -30.15625 L 15.546875 -30.15625 L 15.546875 0 L 9.78125 0 Z M 9.78125 -24.703125 "/></g></g></g><g fill="#000000" fill-opacity="1"><g transform="translate(357.476878, 203.742467)"><g><path d="M 1.421875 -22.546875 C 2.234375 -25.328125 3.53125 -27.414062 5.3125 -28.8125 C 7.09375 -30.207031 9.335938 -30.90625 12.046875 -30.90625 C 13.929688 -30.90625 15.59375 -30.472656 17.03125 -29.609375 C 18.46875 -28.742188 19.570312 -27.597656 20.34375 -26.171875 C 21.113281 -24.742188 21.5 -23.21875 21.5 -21.59375 C 21.5 -20.164062 21.238281 -18.804688 20.71875 -17.515625 C 20.207031 -16.222656 19.429688 -14.910156 18.390625 -13.578125 C 17.359375 -12.253906 15.972656 -10.679688 14.234375 -8.859375 L 10.84375 -5.328125 L 21.75 -5.328125 L 21.75 0 L 0.875 0 L 0.875 -2.765625 L 10.203125 -12.265625 C 12.109375 -14.191406 13.53125 -15.875 14.46875 -17.3125 C 15.40625 -18.757812 15.875 -20.171875 15.875 -21.546875 C 15.875 -22.304688 15.695312 -22.992188 15.34375 -23.609375 C 15 -24.222656 14.519531 -24.710938 13.90625 -25.078125 C 13.289062 -25.441406 12.601562 -25.625 11.84375 -25.625 C 9.320312 -25.625 7.628906 -23.96875 6.765625 -20.65625 Z M 1.421875 -22.546875 "/></g></g></g><g fill="#000000" fill-opacity="1"><g transform="translate(242.216943, 355.424302)"><g><path d="M 12.515625 -19.65625 C 14.253906 -19.65625 15.820312 -19.234375 17.21875 -18.390625 C 18.613281 -17.554688 19.710938 -16.367188 20.515625 -14.828125 C 21.316406 -13.285156 21.71875 -11.503906 21.71875 -9.484375 C 21.71875 -7.421875 21.257812 -5.617188 20.34375 -4.078125 C 19.4375 -2.535156 18.191406 -1.347656 16.609375 -0.515625 C 15.023438 0.304688 13.253906 0.71875 11.296875 0.71875 C 9.671875 0.71875 8.1875 0.425781 6.84375 -0.15625 C 5.5 -0.75 4.34375 -1.554688 3.375 -2.578125 C 2.414062 -3.597656 1.679688 -4.753906 1.171875 -6.046875 L 6.515625 -8.1875 C 6.984375 -7.007812 7.601562 -6.113281 8.375 -5.5 C 9.144531 -4.882812 10.160156 -4.578125 11.421875 -4.578125 C 12.265625 -4.578125 13.023438 -4.769531 13.703125 -5.15625 C 14.390625 -5.550781 14.929688 -6.117188 15.328125 -6.859375 C 15.722656 -7.609375 15.921875 -8.484375 15.921875 -9.484375 C 15.921875 -10.410156 15.71875 -11.226562 15.3125 -11.9375 C 14.90625 -12.65625 14.359375 -13.210938 13.671875 -13.609375 C 12.984375 -14.003906 12.21875 -14.203125 11.375 -14.203125 C 10.507812 -14.203125 9.773438 -14.050781 9.171875 -13.75 C 8.578125 -13.457031 7.984375 -13.003906 7.390625 -12.390625 L 2.734375 -13.4375 L 6.390625 -30.15625 L 21.125 -30.15625 L 21.125 -24.859375 L 10.671875 -24.859375 L 9.359375 -19.0625 C 10.203125 -19.457031 11.253906 -19.65625 12.515625 -19.65625 Z M 12.515625 -19.65625 "/></g></g></g><g fill="#000000" fill-opacity="1"><g transform="translate(86.29523, 243.384066)"><g><path d="M 11.890625 -18.1875 C 13.765625 -18.1875 15.425781 -17.789062 16.875 -17 C 18.332031 -16.21875 19.46875 -15.109375 20.28125 -13.671875 C 21.09375 -12.234375 21.5 -10.5625 21.5 -8.65625 C 21.5 -6.863281 21.066406 -5.253906 20.203125 -3.828125 C 19.335938 -2.398438 18.164062 -1.285156 16.6875 -0.484375 C 15.21875 0.316406 13.628906 0.71875 11.921875 0.71875 C 10.078125 0.71875 8.410156 0.304688 6.921875 -0.515625 C 5.441406 -1.347656 4.28125 -2.488281 3.4375 -3.9375 C 2.601562 -5.394531 2.1875 -7.035156 2.1875 -8.859375 C 2.1875 -10.117188 2.421875 -11.421875 2.890625 -12.765625 C 3.367188 -14.109375 4.128906 -15.71875 5.171875 -17.59375 L 12.515625 -30.90625 L 17.390625 -28.46875 L 11.71875 -18.1875 Z M 11.921875 -4.578125 C 13.046875 -4.578125 13.957031 -4.941406 14.65625 -5.671875 C 15.351562 -6.398438 15.703125 -7.421875 15.703125 -8.734375 C 15.703125 -9.460938 15.546875 -10.132812 15.234375 -10.75 C 14.929688 -11.363281 14.492188 -11.859375 13.921875 -12.234375 C 13.347656 -12.617188 12.679688 -12.8125 11.921875 -12.8125 C 11.171875 -12.8125 10.492188 -12.628906 9.890625 -12.265625 C 9.285156 -11.898438 8.820312 -11.410156 8.5 -10.796875 C 8.175781 -10.179688 8.015625 -9.492188 8.015625 -8.734375 C 8.015625 -7.867188 8.191406 -7.117188 8.546875 -6.484375 C 8.898438 -5.859375 9.375 -5.382812 9.96875 -5.0625 C 10.570312 -4.738281 11.222656 -4.578125 11.921875 -4.578125 Z M 11.921875 -4.578125 "/></g></g></g><g fill="#000000" fill-opacity="1"><g transform="translate(486.651503, 237.808328)"><g><path d="M 11.59375 0.75 C 9.070312 0.75 6.921875 0.132812 5.140625 -1.09375 C 3.367188 -2.320312 2.046875 -3.972656 1.171875 -6.046875 L 6.46875 -8.6875 C 6.96875 -7.34375 7.660156 -6.3125 8.546875 -5.59375 C 9.429688 -4.882812 10.554688 -4.53125 11.921875 -4.53125 C 12.816406 -4.53125 13.609375 -4.734375 14.296875 -5.140625 C 14.984375 -5.546875 15.507812 -6.082031 15.875 -6.75 C 16.238281 -7.425781 16.421875 -8.160156 16.421875 -8.953125 C 16.421875 -9.867188 16.15625 -10.703125 15.625 -11.453125 C 15.09375 -12.210938 14.300781 -12.8125 13.25 -13.25 C 12.195312 -13.6875 10.941406 -13.90625 9.484375 -13.90625 L 9.484375 -18.8125 C 12.960938 -19.09375 14.703125 -20.335938 14.703125 -22.546875 C 14.703125 -23.390625 14.414062 -24.078125 13.84375 -24.609375 C 13.269531 -25.140625 12.519531 -25.40625 11.59375 -25.40625 C 10.78125 -25.40625 10.035156 -25.144531 9.359375 -24.625 C 8.691406 -24.113281 8.109375 -23.378906 7.609375 -22.421875 L 2.4375 -24.90625 C 3.300781 -26.78125 4.515625 -28.25 6.078125 -29.3125 C 7.648438 -30.375 9.554688 -30.90625 11.796875 -30.90625 C 13.535156 -30.90625 15.0625 -30.546875 16.375 -29.828125 C 17.695312 -29.117188 18.710938 -28.15625 19.421875 -26.9375 C 20.140625 -25.71875 20.5 -24.394531 20.5 -22.96875 C 20.5 -21.601562 20.140625 -20.378906 19.421875 -19.296875 C 18.710938 -18.222656 17.65625 -17.332031 16.25 -16.625 C 18.101562 -16.070312 19.53125 -15.113281 20.53125 -13.75 C 21.539062 -12.394531 22.046875 -10.796875 22.046875 -8.953125 C 22.046875 -7.097656 21.644531 -5.4375 20.84375 -3.96875 C 20.050781 -2.5 18.867188 -1.34375 17.296875 -0.5 C 15.734375 0.332031 13.832031 0.75 11.59375 0.75 Z M 11.59375 0.75 "/></g></g></g><g transform="matrix(1, 0, 0, 1, 386, 10)"><g clip-path="url(#d7ec00183d)"><g clip-path="url(#82d1cfea1f)"><g clip-path="url(#9dad854690)"><g clip-path="url(#f0792c2df9)"><g clip-path="url(#0bfb08beb9)"><path fill="#00000d" d="M 11.777344 105.15625 C 12.234375 111.390625 13.894531 117.351562 16.71875 122.878906 C 19.445312 128.214844 23.132812 132.921875 27.679688 136.863281 C 32.230469 140.808594 37.410156 143.789062 43.078125 145.734375 C 48.949219 147.742188 55.089844 148.542969 61.324219 148.109375 C 63.410156 147.964844 64.980469 146.15625 64.828125 144.070312 C 64.675781 141.984375 62.859375 140.414062 60.773438 140.558594 C 39.480469 142.035156 20.890625 125.917969 19.332031 104.628906 C 19.257812 103.585938 18.765625 102.671875 18.03125 102.035156 C 17.296875 101.402344 16.324219 101.042969 15.28125 101.117188 C 13.195312 101.261719 11.625 103.070312 11.777344 105.15625 Z M 11.777344 105.15625 " fill-opacity="1" fill-rule="nonzero"/></g></g></g></g><g clip-path="url(#c6f8aa4a8a)"><g clip-path="url(#3c5a81897d)"><g clip-path="url(#f36fe18d86)"><g clip-path="url(#68fa7782db)"><path fill="#00000d" d="M 36.699219 126.476562 C 43.335938 132.226562 51.8125 135.058594 60.566406 134.453125 C 62.539062 134.316406 64.019531 132.605469 63.875 130.636719 C 63.734375 128.664062 62.015625 127.175781 60.046875 127.3125 C 45.921875 128.292969 33.59375 117.605469 32.5625 103.484375 C 32.492188 102.5 32.027344 101.636719 31.332031 101.035156 C 30.640625 100.433594 29.71875 100.09375 28.730469 100.164062 C 26.757812 100.300781 25.277344 102.011719 25.421875 103.980469 C 26.058594 112.734375 30.066406 120.722656 36.703125 126.476562 Z M 36.699219 126.476562 " fill-opacity="1" fill-rule="nonzero"/></g></g></g></g><g clip-path="url(#a7e99b2f65)"><g clip-path="url(#e11342fb61)"><g clip-path="url(#9539be0fb8)"><g clip-path="url(#82da54e787)"><path fill="#00000d" d="M 45.148438 116.730469 C 49.183594 120.226562 54.335938 121.949219 59.65625 121.582031 C 61.621094 121.445312 63.09375 119.746094 62.953125 117.78125 C 62.808594 115.820312 61.101562 114.339844 59.140625 114.476562 C 52.078125 114.96875 45.910156 109.621094 45.394531 102.5625 C 45.324219 101.582031 44.859375 100.71875 44.171875 100.121094 C 43.480469 99.523438 42.5625 99.1875 41.582031 99.257812 C 39.621094 99.394531 38.144531 101.09375 38.289062 103.054688 C 38.679688 108.375 41.113281 113.234375 45.148438 116.730469 Z M 45.148438 116.730469 " fill-opacity="1" fill-rule="nonzero"/></g></g></g></g><g clip-path="url(#323071320c)"><g clip-path="url(#17462594b3)"><g clip-path="url(#0a3583c261)"><g clip-path="url(#31b0f5e97e)"><path fill="#000000" d="M 54.132812 99.742188 C 54.320312 99.523438 54.527344 99.328125 54.753906 99.152344 C 54.980469 98.976562 55.222656 98.824219 55.480469 98.695312 C 55.738281 98.566406 56.003906 98.464844 56.28125 98.390625 C 56.5625 98.3125 56.84375 98.265625 57.128906 98.246094 C 57.417969 98.226562 57.703125 98.234375 57.988281 98.269531 C 58.273438 98.308594 58.554688 98.371094 58.828125 98.464844 C 59.101562 98.554688 59.363281 98.671875 59.613281 98.816406 C 59.863281 98.957031 60.097656 99.125 60.316406 99.3125 C 60.53125 99.5 60.730469 99.710938 60.90625 99.9375 C 61.085938 100.164062 61.238281 100.40625 61.367188 100.664062 C 61.496094 100.921875 61.597656 101.191406 61.675781 101.46875 C 61.75 101.746094 61.800781 102.027344 61.820312 102.3125 C 61.84375 102.601562 61.835938 102.886719 61.800781 103.171875 C 61.765625 103.457031 61.703125 103.738281 61.609375 104.011719 C 61.519531 104.28125 61.402344 104.542969 61.261719 104.792969 C 61.121094 105.042969 60.953125 105.277344 60.765625 105.492188 C 60.578125 105.710938 60.371094 105.90625 60.144531 106.082031 C 59.917969 106.257812 59.675781 106.410156 59.417969 106.539062 C 59.160156 106.667969 58.894531 106.769531 58.617188 106.84375 C 58.339844 106.921875 58.054688 106.96875 57.769531 106.988281 C 57.480469 107.007812 57.195312 107 56.910156 106.964844 C 56.625 106.925781 56.34375 106.863281 56.070312 106.773438 C 55.796875 106.679688 55.535156 106.5625 55.285156 106.421875 C 55.035156 106.277344 54.800781 106.113281 54.582031 105.921875 C 54.367188 105.734375 54.167969 105.527344 53.992188 105.296875 C 53.8125 105.070312 53.660156 104.828125 53.53125 104.570312 C 53.402344 104.3125 53.300781 104.046875 53.222656 103.769531 C 53.148438 103.492188 53.097656 103.207031 53.078125 102.921875 C 53.054688 102.632812 53.0625 102.347656 53.097656 102.0625 C 53.132812 101.777344 53.195312 101.5 53.289062 101.226562 C 53.378906 100.953125 53.496094 100.691406 53.636719 100.441406 C 53.777344 100.191406 53.945312 99.957031 54.132812 99.742188 Z M 54.132812 99.742188 " fill-opacity="1" fill-rule="nonzero"/></g></g></g></g><g clip-path="url(#b4bf9452a2)"><g clip-path="url(#cac8a6dba7)"><g transform="matrix(1, 0, 0, 1, 53, 60)"><g clip-path="url(#4575444bb3)"><g clip-path="url(#6bf3829f45)"><g clip-path="url(#87c8f8e54f)"><path fill="#ffffff" d="M 0.886719 0.914062 L 51.902344 0.914062 L 51.902344 51.929688 L 0.886719 51.929688 Z M 0.886719 0.914062 " fill-opacity="1" fill-rule="nonzero"/></g></g></g></g></g></g><g clip-path="url(#f6d711d368)"><g clip-path="url(#efdc566dfb)"><path stroke-linecap="butt" transform="matrix(0.93887, 0, 0, 0.93887, 53.888572, 60.914173)" fill="none" stroke-linejoin="miter" d="M 3.99219 -0.000117634 L 50.332815 -0.000117634 C 51.393765 -0.000117634 52.408948 0.420102 53.157854 1.169007 C 53.90676 1.917913 54.326979 2.933097 54.326979 3.994046 L 54.326979 50.334671 C 54.326979 51.395621 53.90676 52.410804 53.157854 53.15971 C 52.408948 53.908616 51.393765 54.328835 50.332815 54.328835 L 3.99219 54.328835 C 2.935401 54.328835 1.920218 53.908616 1.171312 53.15971 C 0.422406 52.410804 -0.00197382 51.395621 -0.00197382 50.334671 L -0.00197382 3.994046 C -0.00197382 2.933097 0.422406 1.917913 1.171312 1.169007 C 1.920218 0.420102 2.935401 -0.000117634 3.99219 -0.000117634 Z M 3.99219 -0.000117634 " stroke="#000000" stroke-width="6.390663" stroke-opacity="1" stroke-miterlimit="4"/></g></g><g clip-path="url(#36c8d5a469)"><g clip-path="url(#46d461e87b)"><g transform="matrix(1, 0, 0, 1, 101, 60)"><g clip-path="url(#76c2941cac)"><g clip-path="url(#def713c574)"><g clip-path="url(#fe8cb668dd)"><path fill="#ffffff" d="M 0.550781 0.914062 L 51.566406 0.914062 L 51.566406 51.929688 L 0.550781 51.929688 Z M 0.550781 0.914062 " fill-opacity="1" fill-rule="nonzero"/></g></g></g></g></g></g><g clip-path="url(#ea85789155)"><g clip-path="url(#5637d70442)"><path stroke-linecap="butt" transform="matrix(0.93887, 0, 0, 0.93887, 101.551714, 60.914173)" fill="none" stroke-linejoin="miter" d="M 3.99317 -0.000117634 L 50.333795 -0.000117634 C 51.394745 -0.000117634 52.409928 0.420102 53.158834 1.169007 C 53.90774 1.917913 54.327959 2.933097 54.327959 3.994046 L 54.327959 50.334671 C 54.327959 51.395621 53.90774 52.410804 53.158834 53.15971 C 52.409928 53.908616 51.394745 54.328835 50.333795 54.328835 L 3.99317 54.328835 C 2.936381 54.328835 1.917037 53.908616 1.168131 53.15971 C 0.419225 52.410804 -0.000993891 51.395621 -0.000993891 50.334671 L -0.000993891 3.994046 C -0.000993891 2.933097 0.419225 1.917913 1.168131 1.169007 C 1.917037 0.420102 2.936381 -0.000117634 3.99317 -0.000117634 Z M 3.99317 -0.000117634 " stroke="#000000" stroke-width="6.390663" stroke-opacity="1" stroke-miterlimit="4"/></g></g><g clip-path="url(#b688b9b601)"><g clip-path="url(#5bf7849594)"><g transform="matrix(1, 0, 0, 1, 148, 60)"><g clip-path="url(#f004f0f68d)"><g clip-path="url(#fab118662b)"><g clip-path="url(#2aa4da6721)"><path fill="#ffffff" d="M 0.511719 0.914062 L 51.523438 0.914062 L 51.523438 51.929688 L 0.511719 51.929688 Z M 0.511719 0.914062 " fill-opacity="1" fill-rule="nonzero"/></g></g></g></g></g></g><g clip-path="url(#9a360ef8c4)"><g clip-path="url(#11f80675cc)"><path stroke-linecap="butt" transform="matrix(0.93887, 0, 0, 0.93887, 148.509797, 60.914173)" fill="none" stroke-linejoin="miter" d="M 3.99205 -0.000117634 L 50.332675 -0.000117634 C 51.393625 -0.000117634 52.408809 0.420102 53.157714 1.169007 C 53.90662 1.917913 54.326839 2.933097 54.326839 3.994046 L 54.326839 50.334671 C 54.326839 51.395621 53.90662 52.410804 53.157714 53.15971 C 52.408809 53.908616 51.393625 54.328835 50.332675 54.328835 L 3.99205 54.328835 C 2.935261 54.328835 1.920078 53.908616 1.171172 53.15971 C 0.422266 52.410804 0.00204698 51.395621 0.00204698 50.334671 L 0.00204698 3.994046 C 0.00204698 2.933097 0.422266 1.917913 1.171172 1.169007 C 1.920078 0.420102 2.935261 -0.000117634 3.99205 -0.000117634 Z M 3.99205 -0.000117634 " stroke="#000000" stroke-width="6.390663" stroke-opacity="1" stroke-miterlimit="4"/></g></g><g clip-path="url(#1c8a6373ca)"><g clip-path="url(#aac78376d0)"><g transform="matrix(1, 0, 0, 1, 101, 14)"><g clip-path="url(#76892aad77)"><g clip-path="url(#fb7b6a29e1)"><g clip-path="url(#91b4263ca1)"><path fill="#ffffff" d="M 0.550781 0.03125 L 51.566406 0.03125 L 51.566406 51.046875 L 0.550781 51.046875 Z M 0.550781 0.03125 " fill-opacity="1" fill-rule="nonzero"/></g></g></g></g></g></g><g clip-path="url(#b12a76082c)"><g clip-path="url(#672e3fd0ab)"><path stroke-linecap="butt" transform="matrix(0.93887, 0, 0, 0.93887, 101.551714, 14.031641)" fill="none" stroke-linejoin="miter" d="M 3.99317 -0.000416439 L 50.333795 -0.000416439 C 51.394745 -0.000416439 52.409928 0.419803 53.158834 1.168709 C 53.90774 1.917614 54.327959 2.932798 54.327959 3.993748 L 54.327959 50.334372 C 54.327959 51.395322 53.90774 52.410506 53.158834 53.159411 C 52.409928 53.908317 51.394745 54.328537 50.333795 54.328537 L 3.99317 54.328537 C 2.936381 54.328537 1.917037 53.908317 1.168131 53.159411 C 0.419225 52.410506 -0.000993891 51.395322 -0.000993891 50.334372 L -0.000993891 3.993748 C -0.000993891 2.932798 0.419225 1.917614 1.168131 1.168709 C 1.917037 0.419803 2.936381 -0.000416439 3.99317 -0.000416439 Z M 3.99317 -0.000416439 " stroke="#000000" stroke-width="6.390663" stroke-opacity="1" stroke-miterlimit="4"/></g></g><g transform="matrix(1, 0, 0, 1, 62, 7)"><g clip-path="url(#adc6e1ef68)"><g fill="#000000" fill-opacity="1"><g transform="translate(0.775163, 47.099379)"><g><path d="M 19.609375 -11.515625 L 22.296875 -11.515625 L 22.296875 -6.171875 L 19.609375 -6.171875 L 19.609375 0 L 14.03125 0 L 14.03125 -6.171875 L 0.84375 -6.171875 L 0.84375 -11.515625 L 13.90625 -30.90625 L 19.609375 -30.90625 Z M 7.09375 -11.515625 L 14.03125 -11.515625 L 14.03125 -21.625 Z M 7.09375 -11.515625 "/></g></g></g></g></g></g></g></svg>